<?xml version="1.0" encoding="utf-8"?>
<!-- Generator: Adobe Illustrator 14.0.0, SVG Export Plug-In . SVG Version: 6.00 Build 43363)  -->
<!DOCTYPE svg PUBLIC "-//W3C//DTD SVG 1.1//EN" "http://www.w3.org/Graphics/SVG/1.1/DTD/svg11.dtd">
<svg version="1.1" id="Layer_1" xmlns="http://www.w3.org/2000/svg" xmlns:xlink="http://www.w3.org/1999/xlink" x="0px" y="0px"
	 width="182.407px" height="182.407px" viewBox="0 0 182.407 182.407" enable-background="new 0 0 182.407 182.407"
	 xml:space="preserve">
<path fill="#FFFFFF" d="M91.203,0C40.834,0,0,40.833,0,91.203c0,50.371,40.834,91.204,91.203,91.204
	c50.373,0,91.204-40.833,91.204-91.204C182.407,40.833,141.576,0,91.203,0z M57.999,170.905c1.259-0.773,2.753-1.799,4.043-2.695
	c11.234-7.764,17.338-14.285,20.252-21.219c4.16-9.849,4.16-18.449,4.16-40.922V72.78c0-8.298,0-13.979,0.015-18.088
	c0.179,0.076,0.384,0.115,0.589,0.115c1.247,0,3.607,0.139,4.718,0.417c4.577,0.972,5.688,3.19,5.964,7.906
	c0.277,4.439,0.277,8.322,0.277,29.961v24.412c0,13.318,0,24.276-0.696,30.101c-0.554,4.021-1.249,7.074-4.021,7.631
	c-1.249,0.277-2.913,0.555-4.16,0.555c-0.834,0-1.111,0.414-1.111,0.828c0,0.836,0.694,1.111,2.22,1.111
	c2.082,0,5.133-0.139,7.907-0.275c2.775,0,5.136-0.139,5.689-0.139c4.02,0,8.32,0.139,14.147,0.414
	c5.827,0.139,13.037,0.42,23.026,0.42c2.18,0,3.748-0.053,4.907-0.205c-14.906,12.246-33.971,19.604-54.722,19.604
	C79.444,177.547,68.226,175.18,57.999,170.905z M149.667,154.682c0.028-0.09,0.057-0.186,0.086-0.281
	c1.11-4.023,2.079-12.345,2.079-13.871s-0.134-2.082-0.83-2.082c-0.835,0-1.111,0.694-1.249,1.805
	c-0.415,2.634-1.803,6.103-3.605,8.321c-3.328,4.023-9.432,4.162-16.784,4.162c-10.82,0-14.425-0.971-16.646-3.189
	c-2.494-2.5-3.052-11.375-3.052-31.768V93.091c0-21.639,0-25.522,0.281-29.961c0.276-4.855,1.383-7.212,5.407-7.906
	c1.664-0.278,3.604-0.417,4.577-0.417c0.554,0,1.111-0.277,1.111-0.833c0-0.831-0.696-1.107-2.218-1.107
	c-4.162,0-14.29,0.415-14.981,0.415c-0.696,0-9.433-0.415-15.676-0.415c-0.77,0-1.327,0.069-1.69,0.247
	c0.029-5.454,0.096-7.787,0.253-10.294c0.279-4.855,1.388-7.213,5.134-7.907c1.664-0.278,2.495-0.416,3.468-0.416
	c0.553,0,1.106-0.279,1.106-0.832c0-0.833-0.692-1.11-2.219-1.11c-4.158,0-12.898,0.416-13.593,0.416
	c-0.691,0-9.43-0.416-15.674-0.416c-1.525,0-2.217,0.276-2.217,1.11c0,0.553,0.553,0.832,1.108,0.832
	c1.247,0,3.604,0.138,4.716,0.416c4.578,0.97,5.688,3.19,5.966,7.907c0.276,4.438,0.276,8.321,0.276,29.96v40.088
	c0,35.787-4.302,43.14-13.318,52.292c-1.247,1.25-3.188,2.914-4.852,3.885c-0.448,0.301-0.823,0.543-1.121,0.771
	c-29.85-13.604-50.652-43.726-50.652-78.614c0-47.61,38.733-86.345,86.344-86.345c47.611,0,86.346,38.735,86.346,86.345
	C177.548,116.28,166.8,138.892,149.667,154.682z"/>
</svg>
